<?xml version="1.0" standalone="no"?>
<!DOCTYPE svg PUBLIC "-//W3C//DTD SVG 20010904//EN"
 "http://www.w3.org/TR/2001/REC-SVG-20010904/DTD/svg10.dtd">
<svg version="1.0" xmlns="http://www.w3.org/2000/svg"
 width="1920.000000pt" height="900.000000pt" viewBox="0 0 1920.000000 900.000000"
 preserveAspectRatio="xMidYMid meet">

<g transform="translate(0.000000,900.000000) scale(0.100000,-0.100000)"
fill="#000000" stroke="none">
<path d="M0 4500 l0 -4500 4963 2 4962 3 -4957 2 -4958 3 0 4490 0 4490 4733
3 4732 2 -4737 3 -4738 2 0 -4500z"/>
<path d="M13300 8190 c-12 -16 -18 -35 -14 -41 4 -7 3 -9 -4 -5 -6 3 -21 -12
-36 -36 -23 -39 -24 -44 -9 -60 11 -13 12 -18 3 -18 -7 0 -10 -7 -6 -16 3 -9
2 -12 -5 -9 -6 4 -8 13 -5 21 3 7 1 16 -4 19 -10 6 -14 -15 -11 -44 2 -7 -2
-10 -8 -7 -26 16 -49 -214 -28 -284 l13 -45 12 95 c6 52 15 106 18 120 4 14 7
37 8 52 0 14 4 24 7 22 6 -3 21 48 24 81 0 6 7 20 13 33 7 12 10 26 7 31 -3 5
-2 11 2 13 8 3 54 108 48 108 -2 0 -13 -13 -25 -30z m-37 -117 c-3 -7 -6 -13
-8 -13 -2 0 -5 6 -8 13 -3 8 1 14 8 14 7 0 11 -6 8 -14z m-33 -93 c0 -5 -5
-10 -11 -10 -5 0 -7 5 -4 10 3 6 8 10 11 10 2 0 4 -4 4 -10z"/>
<path d="M12986 7733 c-6 -14 -5 -15 5 -6 7 7 10 15 7 18 -3 3 -9 -2 -12 -12z"/>
<path d="M12976 7701 c-4 -5 -3 -17 1 -27 4 -11 3 -15 -5 -10 -6 4 -11 -1 -11
-11 0 -10 -4 -48 -9 -86 -11 -70 1 -211 18 -233 6 -6 7 -14 2 -18 -4 -4 1 -12
11 -17 9 -6 17 -15 17 -22 0 -8 -4 -6 -11 3 -9 12 -10 11 -4 -5 23 -65 28 -74
38 -68 6 3 7 1 3 -6 -4 -6 -2 -18 4 -26 7 -8 9 -15 5 -15 -4 0 -3 -6 3 -13 6
-7 12 -26 14 -42 l3 -30 -70 -6 c-146 -13 -284 -65 -367 -138 -44 -40 -88
-113 -88 -148 0 -10 11 5 24 33 56 120 238 212 455 230 l76 6 63 -124 c62
-122 62 -124 62 -205 0 -110 -26 -180 -91 -245 l-48 -48 35 0 c73 0 185 96
233 200 36 78 35 203 -2 309 -15 41 -25 76 -23 78 8 9 123 -43 179 -80 67 -45
114 -105 127 -158 7 -30 8 -31 9 -8 4 95 -115 209 -266 258 -61 20 -72 27 -87
58 -10 21 -22 33 -30 30 -7 -3 -19 -1 -27 5 -11 8 -11 9 3 5 24 -8 30 4 10 20
-9 8 -11 12 -5 8 9 -4 11 -1 7 9 -3 9 -10 13 -15 10 -5 -3 -6 1 -4 8 3 8 -6
25 -19 37 -14 13 -23 29 -19 34 4 6 0 8 -10 4 -8 -3 -20 0 -26 7 -8 9 -7 13 4
13 8 0 11 -5 8 -10 -3 -6 -1 -7 5 -3 10 6 -47 106 -90 157 -7 9 -14 22 -16 29
-2 7 -10 25 -18 39 -8 14 -13 18 -10 8 4 -11 2 -16 -5 -12 -6 4 -8 13 -5 21 3
8 -2 40 -10 72 -9 31 -15 74 -15 95 2 37 -3 46 -13 28z m94 -285 c0 -2 -8 -10
-17 -17 -16 -13 -17 -12 -4 4 13 16 21 21 21 13z m-73 -68 c-3 -8 -6 -5 -6 6
-1 11 2 17 5 13 3 -3 4 -12 1 -19z m44 -5 c-12 -20 -14 -14 -5 12 4 9 9 14 11
11 3 -2 0 -13 -6 -23z m67 -9 c-4 -3 -12 5 -18 18 -12 22 -12 22 6 6 10 -10
15 -20 12 -24z m-45 1 c-3 -9 -8 -14 -10 -11 -3 3 -2 9 2 15 9 16 15 13 8 -4z
m-42 -108 c-10 -9 -11 -8 -5 6 3 10 9 15 12 12 3 -3 0 -11 -7 -18z m76 -89
c-3 -8 -6 -5 -6 6 -1 11 2 17 5 13 3 -3 4 -12 1 -19z"/>
<path d="M15745 7610 c-14 -6 -15 -9 -5 -9 8 -1 87 -42 175 -92 88 -51 167
-92 176 -93 8 0 24 -9 34 -19 10 -11 26 -16 37 -14 16 5 17 3 7 -9 -10 -12 -9
-13 5 -8 9 3 16 1 16 -4 0 -10 29 -24 41 -19 3 1 14 -5 25 -13 10 -8 6 0 -10
17 -18 20 -34 29 -44 26 -9 -4 -13 -2 -9 4 7 10 -12 23 -41 29 -8 1 -19 9 -25
17 -7 7 -70 48 -142 89 -200 116 -199 116 -240 98z m485 -255 c11 -13 10 -14
-4 -9 -9 3 -16 10 -16 15 0 13 6 11 20 -6z"/>
<path d="M16090 6777 c14 -7 147 -83 295 -169 149 -86 630 -363 1070 -617 440
-254 808 -471 818 -482 9 -12 17 -37 17 -55 0 -28 -480 -1610 -496 -1636 -9
-14 13 -9 25 5 21 27 510 1633 504 1658 -9 37 -29 55 -117 106 -45 25 -532
306 -1083 624 -673 389 -1011 579 -1030 579 l-28 0 25 -13z"/>
<path d="M12410 6630 c0 -80 8 -112 43 -162 20 -30 40 -38 31 -13 -4 8 -1 15
5 15 6 0 11 5 11 11 0 5 -4 8 -8 5 -4 -2 -7 7 -7 22 1 15 -4 34 -9 42 -10 13
-9 13 8 0 11 -8 31 -25 45 -38 39 -36 197 -110 286 -134 69 -18 107 -22 270
-22 165 0 200 3 270 22 211 58 360 175 389 307 4 18 -6 5 -24 -32 -38 -77
-105 -138 -202 -186 -253 -124 -608 -124 -863 0 -100 48 -197 139 -216 201 -6
23 -16 42 -21 42 -4 0 -8 -36 -8 -80z"/>
<path d="M16154 6145 c-8 -20 0 -30 52 -59 58 -32 74 -33 74 -3 0 18 -12 30
-49 50 -56 31 -69 33 -77 12z"/>
<path d="M16505 6080 c-14 -22 9 -47 80 -88 77 -44 95 -46 95 -12 0 14 -24 33
-77 65 -83 48 -89 50 -98 35z"/>
<path d="M16234 5975 c-3 -8 -3 -19 0 -24 9 -14 269 -161 284 -161 7 0 12 11
12 24 0 20 -21 36 -133 100 -73 42 -139 76 -145 76 -7 0 -15 -7 -18 -15z"/>
<path d="M16760 5916 c0 -20 18 -34 104 -85 58 -34 112 -61 120 -61 21 0 20
33 -1 52 -26 22 -198 118 -212 118 -6 0 -11 -11 -11 -24z"/>
<path d="M16204 5868 c-4 -6 3 -20 17 -31 37 -29 382 -227 397 -227 8 0 12 9
10 21 -2 15 -54 51 -198 135 -107 62 -200 114 -207 114 -6 0 -15 -5 -19 -12z"/>
<path d="M16177 5773 c-19 -19 -3 -43 48 -72 58 -33 75 -33 75 -1 0 11 -19 30
-50 49 -52 32 -62 35 -73 24z"/>
<path d="M17517 5763 c-14 -14 -5 -24 48 -58 61 -39 75 -43 75 -17 0 10 -21
30 -54 50 -59 35 -60 35 -69 25z"/>
<path d="M17082 5729 c2 -17 60 -55 243 -160 132 -76 245 -138 252 -139 19 0
26 21 12 35 -8 8 -102 64 -209 126 -107 62 -213 123 -235 136 -50 29 -67 29
-63 2z"/>
<path d="M16343 5664 c-8 -22 9 -36 127 -104 112 -65 143 -74 138 -38 -2 17
-33 39 -121 90 -66 37 -123 68 -128 68 -5 0 -12 -7 -16 -16z"/>
<path d="M16144 5655 c-9 -22 0 -30 114 -94 139 -78 142 -79 142 -50 0 20 -20
35 -119 92 -65 37 -122 67 -125 67 -4 0 -9 -7 -12 -15z"/>
<path d="M17700 5642 c0 -19 112 -87 123 -75 17 16 3 33 -48 62 -63 36 -75 38
-75 13z"/>
<path d="M12996 5591 c-13 -25 -13 -31 0 -50 27 -39 74 -21 74 29 0 54 -50 68
-74 21z"/>
<path d="M12866 5587 c-20 -30 -10 -66 20 -73 48 -12 74 45 36 79 -25 23 -39
21 -56 -6z"/>
<path d="M16114 5555 c-9 -23 2 -43 36 -60 66 -34 83 10 20 50 -46 29 -49 30
-56 10z"/>
<path d="M13115 5526 c-13 -19 -14 -29 -5 -45 15 -29 56 -27 76 4 23 36 15 59
-23 63 -25 2 -35 -2 -48 -22z"/>
<path d="M17886 5542 c-8 -13 6 -27 55 -55 88 -51 108 -25 23 31 -49 32 -69
38 -78 24z"/>
<path d="M16656 5491 c-11 -17 4 -36 50 -64 52 -31 60 -33 68 -12 7 18 -15 40
-65 65 -44 23 -46 23 -53 11z"/>
<path d="M16236 5481 c-13 -20 9 -43 79 -81 40 -22 78 -40 84 -40 6 0 11 11
11 24 0 20 -13 32 -74 65 -76 43 -91 47 -100 32z"/>
<path d="M12926 5447 c-57 -57 -9 -157 74 -157 38 0 71 22 89 57 17 33 13 59
-12 89 -18 20 -35 28 -74 31 -45 5 -55 2 -77 -20z"/>
<path d="M16461 5356 c-20 -24 -4 -39 107 -103 87 -50 109 -60 120 -49 21 21
5 40 -66 80 -37 21 -86 49 -108 63 -35 20 -43 21 -53 9z"/>
<path d="M16044 5335 c-8 -21 8 -39 56 -60 69 -31 81 15 14 55 -42 24 -63 25
-70 5z"/>
<path d="M16195 5260 c-15 -24 10 -48 98 -97 52 -29 99 -53 105 -53 7 0 12 11
12 24 0 20 -17 34 -98 80 -106 60 -108 61 -117 46z"/>
<path d="M16017 5243 c-21 -20 -2 -44 64 -82 81 -47 99 -50 99 -18 0 18 -16
32 -74 65 -79 45 -79 45 -89 35z"/>
<path d="M15872 5179 c2 -16 36 -40 125 -91 117 -66 148 -75 141 -41 -3 16
-231 153 -255 153 -9 0 -13 -8 -11 -21z"/>
<path d="M16462 5088 c3 -23 58 -60 192 -133 45 -24 58 -27 68 -17 21 21 1 39
-117 107 -120 70 -148 78 -143 43z"/>
<path d="M12510 5003 c-63 -36 -140 -79 -170 -96 -83 -46 -124 -72 -139 -91
-16 -20 -17 -82 -1 -101 22 -26 400 -236 413 -229 6 4 9 4 5 -1 -9 -10 7 -22
86 -64 32 -18 65 -30 72 -27 7 3 11 0 9 -7 -3 -7 20 -27 51 -45 38 -22 54 -27
50 -17 -3 9 -2 13 4 10 6 -3 10 -2 10 2 0 8 -142 90 -148 85 -1 -2 -9 4 -17
12 -8 8 -41 29 -72 48 -355 204 -433 252 -438 269 -10 31 12 56 93 102 83 47
325 188 330 192 1 1 -3 7 -11 13 -10 8 -41 -5 -127 -55z m335 -643 c10 -11 16
-20 13 -20 -3 0 -13 9 -23 20 -10 11 -16 20 -13 20 3 0 13 -9 23 -20z"/>
<path d="M16794 4905 c-8 -20 1 -31 52 -61 80 -47 105 -4 27 46 -54 33 -71 37
-79 15z"/>
<path d="M13655 4320 c3 -5 8 -10 11 -10 2 0 4 5 4 10 0 6 -5 10 -11 10 -5 0
-7 -4 -4 -10z"/>
<path d="M12900 4309 c0 -5 5 -7 10 -4 6 3 10 8 10 11 0 2 -4 4 -10 4 -5 0
-10 -5 -10 -11z"/>
<path d="M12929 4303 c-8 -9 -8 -13 0 -13 6 0 11 5 11 11 0 8 4 8 13 0 10 -8
14 -7 14 2 0 18 -24 17 -38 0z"/>
<path d="M13647 4299 c7 -7 15 -10 18 -7 3 3 -2 9 -12 12 -14 6 -15 5 -6 -5z"/>
<path d="M13510 4240 c-13 -9 -13 -10 0 -10 12 0 12 -2 2 -9 -11 -7 -11 -9 0
-14 10 -3 14 3 14 19 0 13 0 24 0 24 -1 0 -8 -5 -16 -10z"/>
<path d="M13460 4210 c0 -5 5 -10 11 -10 5 0 7 5 4 10 -3 6 -8 10 -11 10 -2 0
-4 -4 -4 -10z"/>
<path d="M13430 4191 c0 -7 -5 -9 -12 -5 -7 5 -8 3 -3 -5 5 -9 10 -10 18 -2 6
6 8 14 4 18 -4 3 -7 1 -7 -6z"/>
<path d="M13374 4157 c-19 -22 -19 -22 2 -5 19 16 21 16 37 1 9 -9 18 -15 21
-12 2 2 -6 12 -19 21 -22 16 -23 16 -41 -5z"/>
<path d="M12594 3665 c15 -87 25 -110 57 -129 39 -23 44 -19 -156 -136 -319
-187 -375 -221 -395 -247 -42 -54 -18 -87 115 -163 50 -29 167 -96 260 -150
94 -54 287 -165 430 -247 143 -83 342 -198 443 -257 101 -58 188 -103 194
-100 6 4 8 2 5 -3 -4 -6 23 -27 61 -47 37 -20 85 -48 107 -61 22 -13 47 -22
55 -19 8 3 11 2 7 -2 -8 -8 7 -19 73 -56 25 -14 61 -35 80 -46 24 -14 40 -18
50 -12 18 11 21 8 -72 63 -57 34 -79 42 -88 33 -8 -8 -10 -7 -5 4 4 11 -14 26
-67 55 -40 22 -79 39 -85 39 -7 -1 -11 2 -8 6 3 5 -14 19 -37 33 -55 31 -435
250 -513 295 -33 19 -89 51 -125 72 -61 34 -179 103 -655 380 -207 121 -226
138 -188 172 16 15 581 348 590 348 2 0 43 -23 93 -51 51 -29 94 -48 101 -43
7 4 9 3 5 -4 -3 -6 16 -23 46 -40 29 -16 86 -47 126 -70 40 -22 70 -37 67 -32
-3 5 1 15 10 23 12 13 12 16 0 20 -8 4 -16 -1 -18 -11 -4 -16 -5 -16 -6 0 0 9
3 19 8 22 12 8 151 -65 145 -76 -3 -4 3 -5 12 -1 10 4 15 2 11 -4 -3 -5 0 -10
7 -10 7 0 93 -46 192 -103 98 -57 294 -169 434 -250 615 -353 1037 -596 1485
-855 476 -275 481 -278 546 -283 50 -3 74 0 100 13 19 10 250 143 514 295 264
152 716 413 1005 580 655 378 641 370 652 400 l9 24 -23 -20 c-13 -12 -97 -64
-188 -116 -91 -52 -444 -256 -785 -453 -341 -197 -748 -432 -904 -522 -285
-164 -345 -191 -403 -179 -17 3 -111 52 -207 108 -97 56 -630 364 -1186 686
-555 322 -1050 608 -1100 637 -49 28 -263 152 -475 274 -212 123 -391 230
-399 240 -11 14 -12 11 -7 -24z m486 -309 c0 -2 -7 -7 -16 -10 -8 -3 -12 -2
-9 4 6 10 25 14 25 6z m33 -58 c-2 -5 0 -8 6 -8 5 0 12 6 14 13 3 6 6 2 6 -11
1 -22 1 -22 -31 -6 -43 22 -43 22 -15 20 14 0 23 -4 20 -8z"/>
<path d="M19135 3315 c-33 -19 -102 -57 -153 -86 -149 -82 -151 -120 -7 -203
218 -126 222 -128 221 -106 0 11 -11 26 -23 33 -57 31 -211 122 -235 139 -45
31 -35 49 59 103 47 28 92 56 99 63 7 7 16 12 19 12 18 -3 85 46 85 62 0 10
-1 18 -2 18 -2 0 -30 -16 -63 -35z"/>
<path d="M13184 3266 c-3 -8 -4 -21 -1 -28 3 -8 6 -6 6 5 1 10 6 15 11 12 6
-3 10 -2 10 4 0 17 -20 23 -26 7z"/>
<path d="M13228 3253 c7 -3 16 -2 19 1 4 3 -2 6 -13 5 -11 0 -14 -3 -6 -6z"/>
<path d="M13211 3231 c-10 -6 -9 -10 3 -14 8 -3 18 -2 21 3 8 13 -9 20 -24 11z"/>
<path d="M13253 3223 c0 -9 4 -10 14 -2 7 6 13 12 13 14 0 1 -6 2 -13 2 -8 0
-14 -6 -14 -14z"/>
<path d="M11165 3039 c4 -6 1 -9 -6 -8 -23 4 -69 -20 -69 -35 0 -8 -4 -18 -10
-21 -6 -4 -7 1 -3 12 6 16 5 16 -10 4 -9 -7 -14 -18 -10 -25 4 -7 2 -7 -7 1
-10 9 -21 8 -49 -8 -42 -22 -74 -42 -81 -49 -3 -3 -34 -20 -70 -39 -87 -45
-181 -101 -202 -119 -23 -19 -23 -67 0 -89 22 -23 445 -263 472 -268 11 -2 23
1 26 7 4 7 2 8 -4 4 -7 -4 -12 -3 -12 1 0 5 -10 14 -21 22 -19 11 -21 11 -16
-4 4 -9 3 -14 -3 -10 -6 3 -10 13 -10 20 0 17 -36 38 -50 30 -6 -4 -9 -2 -8 4
2 6 -11 18 -28 28 -286 163 -324 188 -322 212 2 16 16 30 43 45 96 51 205 119
205 127 0 5 4 8 9 7 16 -5 201 106 201 120 0 6 8 12 18 12 9 0 23 4 30 9 11 7
10 9 -3 14 -10 4 -14 3 -10 -4z m-184 -556 c13 -16 12 -17 -3 -4 -10 7 -18 15
-18 17 0 8 8 3 21 -13z"/>
<path d="M11155 2390 c-4 -6 1 -7 11 -3 11 4 15 2 11 -4 -9 -15 17 -23 34 -11
11 8 11 9 -3 5 -9 -3 -19 1 -22 9 -6 16 -22 18 -31 4z"/>
<path d="M13990 1985 c-8 -10 0 -19 33 -38 24 -14 50 -27 58 -29 8 -2 18 -8
24 -14 5 -6 42 -28 80 -49 39 -21 80 -44 92 -52 12 -8 28 -11 34 -7 7 4 9 3 5
-4 -7 -12 27 -35 38 -25 3 3 6 1 6 -5 0 -6 10 -16 21 -23 15 -8 19 -8 15 0 -4
6 -2 11 3 11 6 0 11 -7 11 -17 0 -9 3 -14 6 -10 3 3 14 -3 25 -14 11 -11 24
-17 29 -14 6 4 10 1 10 -5 0 -7 7 -9 16 -6 8 3 12 2 9 -4 -3 -5 6 -12 20 -16
14 -3 25 -10 25 -16 0 -5 4 -7 10 -3 14 9 -1 37 -17 31 -8 -3 -12 -2 -9 3 3 4
-18 21 -47 36 -29 16 -63 36 -77 45 -14 9 -31 15 -37 13 -7 -3 -13 2 -13 11 0
9 -6 16 -14 16 -8 0 -21 6 -28 13 -7 6 -27 20 -44 29 -24 14 -33 15 -43 5 -10
-9 -11 -8 -6 5 5 13 0 20 -16 27 -13 5 -28 6 -33 3 -5 -3 -6 0 -3 5 9 14 -70
56 -85 47 -6 -4 -8 -2 -4 4 3 6 -13 21 -39 35 -35 20 -46 23 -55 12z"/>
<path d="M14573 1649 c-1 -10 2 -19 8 -19 15 0 22 -4 47 -27 14 -13 30 -19 39
-16 12 5 14 3 8 -8 -4 -8 -5 -11 0 -7 4 4 14 1 21 -7 8 -8 22 -11 31 -8 10 4
14 2 10 -4 -5 -7 0 -9 12 -6 13 3 21 -1 24 -14 4 -15 5 -15 6 -1 1 15 -63 61
-86 61 -4 0 -13 7 -19 15 -6 8 -16 12 -22 8 -7 -4 -12 -2 -12 3 0 6 -7 11 -15
11 -8 0 -15 4 -15 10 0 5 -8 14 -18 19 -14 8 -18 6 -19 -10z m97 -43 c0 -3 -4
-8 -10 -11 -5 -3 -10 -1 -10 4 0 6 5 11 10 11 6 0 10 -2 10 -4z"/>
<path d="M14790 1528 c0 -14 59 -52 68 -43 3 3 0 5 -7 5 -7 0 -9 5 -5 12 4 7
3 8 -4 4 -7 -4 -12 -3 -12 3 0 6 -9 15 -20 21 -15 8 -20 8 -20 -2z"/>
<path d="M14866 1474 c-3 -8 -2 -12 4 -9 6 3 13 -1 16 -9 3 -9 10 -14 14 -11
5 3 16 -2 24 -11 9 -8 16 -11 16 -6 0 11 -49 62 -60 62 -4 0 -11 -7 -14 -16z"/>
<path d="M14953 1425 c0 -8 4 -15 9 -15 4 0 8 7 8 15 0 8 -4 15 -8 15 -5 0 -9
-7 -9 -15z"/>
<path d="M15010 1390 c-14 -9 -7 -12 16 -9 4 0 10 -5 14 -12 4 -6 22 -13 39
-14 17 -2 28 1 25 6 -3 5 -14 9 -25 9 -10 0 -19 5 -19 11 0 5 -4 7 -10 4 -5
-3 -10 -1 -10 4 0 13 -10 14 -30 1z"/>
<path d="M15131 1324 c0 -11 3 -14 6 -6 3 7 2 16 -1 19 -3 4 -6 -2 -5 -13z"/>
<path d="M15157 1319 c7 -7 15 -10 18 -7 3 3 -2 9 -12 12 -14 6 -15 5 -6 -5z"/>
<path d="M15181 1301 c-8 -5 -9 -11 -3 -15 5 -3 12 1 16 9 6 17 6 18 -13 6z"/>
<path d="M15206 1291 c-3 -5 1 -14 8 -20 10 -9 16 -9 21 -1 4 6 4 14 1 17 -3
4 -6 1 -6 -6 0 -7 -5 -9 -10 -6 -6 4 -8 11 -5 16 4 5 4 9 1 9 -3 0 -7 -4 -10
-9z"/>
<path d="M15495 1120 c-4 -6 -11 -7 -17 -4 -7 4 -8 2 -4 -5 6 -9 11 -9 22 0
14 11 18 19 10 19 -3 0 -8 -5 -11 -10z"/>
</g>
</svg>
